<svg width="18px" height="16px" viewBox="153 0 18 16" version="1.1" xmlns="http://www.w3.org/2000/svg" xmlns:xlink="http://www.w3.org/1999/xlink">
    <desc>Created with Sketch.</desc>
    <defs></defs>
    <g id="linkedin-copy-2" stroke="none" stroke-width="1" fill="none" fill-rule="evenodd" transform="translate(153.000000, 0.000000)">
        <path d="M18,16 L14,16 L14,10 C14,9.05777778 12.81,8.27555556 11.75,8.27555556 C10.69,8.27555556 10,9.05777778 10,10 L10,16 L6,16 L6,5.33333333 L10,5.33333333 L10,7.11111111 C10.66,6.16 12.36,5.54666667 13.5,5.54666667 C16,5.54666667 18,7.36 18,9.55555556 L18,16 L18,16 Z M4,16 L0,16 L0,5.33333333 L4,5.33333333 L4,16 L4,16 Z M2,0 C3.1045695,0 4,0.795938223 4,1.77777778 C4,2.75961733 3.1045695,3.55555556 2,3.55555556 C0.8954305,3.55555556 0,2.75961733 0,1.77777778 C0,0.795938223 0.8954305,0 2,0 Z" id="Shape" fill="#000000"></path>
    </g>
</svg>