<svg xmlns="http://www.w3.org/2000/svg" viewBox="0 0 129 148.96"><defs><style>.cls-1{fill:gray;}.cls-2{fill:#d1d3d4;}</style></defs><title>logo_geom_2tonos</title><g id="Layer_2" data-name="Layer 2"><g id="Layer_1-2" data-name="Layer 1"><polygon class="cls-1" points="43 136.54 43 136.54 43 136.54 43 136.54"/><polygon class="cls-1" points="0 111.72 0 111.72 0 111.72 0 111.72"/><polygon class="cls-1" points="64.5 148.65 63.97 148.65 64.5 148.96 65.03 148.65 64.5 148.65"/><polygon class="cls-1" points="43 136.24 21.76 123.98 21.5 124.13 21.5 124.13 43 136.54 43 136.24"/><polygon class="cls-1" points="21.5 124.13 21.76 123.98 21.5 123.83 21.5 124.13"/><polygon class="cls-1" points="43 136.54 43 136.54 43.26 136.39 43 136.24 43 136.54"/><polygon class="cls-1" points="0 111.72 0 111.72 0.26 111.56 0 111.41 0 111.72"/><polygon class="cls-1" points="21.5 123.83 0.26 111.56 0 111.72 21.5 124.13 21.5 124.13 21.5 123.83"/><polygon class="cls-1" points="21.5 124.13 21.5 124.13 21.5 124.13 21.5 124.13"/><polygon class="cls-1" points="43 136.54 63.97 148.65 64.5 148.65 43.26 136.39 43 136.54"/><polygon class="cls-1" points="43 12.41 43 12.41 43 12.41 43 12.41"/><polygon class="cls-1" points="86 37.24 86 37.24 86 37.24 86 37.24"/><polygon class="cls-1" points="64.5 24.83 64.5 24.83 64.5 24.83 64.5 24.83"/><polygon class="cls-1" points="64.5 49.65 64.5 49.65 64.5 49.65 64.5 49.65"/><polygon class="cls-1" points="107.5 49.65 107.5 49.65 107.5 49.65 107.5 49.65"/><polygon class="cls-1" points="107.5 24.83 107.5 24.83 107.5 24.83 107.5 24.83"/><polygon class="cls-1" points="43 62.06 43 62.06 43 62.06 43 62.06"/><polygon class="cls-1" points="64.5 74.48 64.5 74.48 64.5 74.48 64.5 74.48"/><polygon class="cls-1" points="43 111.72 43 111.72 43 111.72 43 111.72"/><polygon class="cls-1" points="21.5 99.3 21.5 99.3 21.5 99.3 21.5 99.3"/><polygon class="cls-1" points="86 111.72 86 111.72 86 111.72 86 111.72"/><polygon class="cls-1" points="107.5 0 107.5 0 107.5 0 107.5 0"/><polygon class="cls-1" points="43 37.24 43 37.24 43 37.24 43 37.24"/><polygon class="cls-1" points="86 12.41 86 12.41 86 12.41 86 12.41"/><polygon class="cls-1" points="21.5 49.65 21.5 49.65 21.5 49.65 21.5 49.65"/><polygon class="cls-1" points="86 86.89 86 86.89 86 86.89 86 86.89"/><polygon class="cls-1" points="43 86.89 43 86.89 43 86.89 43 86.89"/><polygon class="cls-1" points="0 86.89 0 86.89 0 86.89 0 86.89"/><polygon class="cls-1" points="64.5 124.13 64.5 124.13 64.5 124.13 64.5 124.13"/><polygon class="cls-1" points="21.5 24.83 21.5 24.83 21.5 24.83 21.5 24.83"/><polygon class="cls-1" points="21.5 74.48 21.5 74.48 21.5 74.48 21.5 74.48"/><polygon class="cls-1" points="64.5 99.3 64.5 99.3 64.5 99.3 64.5 99.3"/><polygon class="cls-1" points="129 12.41 129 12.41 129 12.41 129 12.41"/><polygon class="cls-1" points="107.5 74.48 107.5 74.48 107.5 74.48 107.5 74.48"/><polygon class="cls-1" points="86 111.72 86 111.72 86 111.72 86 111.72"/><line class="cls-1" x1="107.5" y1="74.48" x2="107.5" y2="49.65"/><polygon class="cls-1" points="107.5 74.48 107.5 74.48 107.5 74.48 107.5 74.48"/><path class="cls-1" d="M88.68,88.62"/><path class="cls-1" d="M88.68,88.62"/><path class="cls-1" d="M88.68,60.52"/><polyline class="cls-1" points="107.5 74.48 107.5 49.65 88.92 60.38"/><polygon class="cls-2" points="107.5 0 86 12.41 86 12.41 64.5 24.83 64.5 24.83 64.5 24.83 43 12.41 21.5 24.83 43 37.24 43 37.24 64.5 49.65 64.5 49.65 86 37.24 107.5 24.83 129 12.41 107.5 0"/><polygon class="cls-2" points="21.5 74.48 0 86.89 0 86.89 21.5 99.3 43 111.72 43 86.89 43 86.89 21.5 74.48 21.5 74.48"/><polygon class="cls-1" points="43 37.24 43 37.24 21.5 24.83 21.5 49.65 21.5 49.65 43 62.06 43 86.89 43 86.89 43 86.89 43 111.72 21.5 99.3 0 86.89 0 111.41 0.26 111.56 21.5 123.83 21.76 123.98 43 136.24 43.26 136.39 64.5 148.65 64.5 124.13 64.5 124.13 64.5 99.3 64.5 74.48 64.5 74.48 64.5 49.65 43 37.24 43 37.24"/><polygon class="cls-1" points="107.5 74.48 107.5 74.48 107.5 49.65 88.84 60.43 107.5 93.15 107.5 74.48"/><polygon class="cls-1" points="86 86.89 102.43 96.38 86 67.56 86 86.89"/><polyline class="cls-2" points="86 86.89 86 111.72 104.94 100.78 102.43 96.38"/></g></g></svg>